<svg id="Capa_1" data-name="Capa 1" xmlns="http://www.w3.org/2000/svg" viewBox="0 0 50 50"><defs><style>.cls-1{fill:#fef5f5;}.cls-2{fill:#e7eef9;}.cls-3{fill:#ccddf3;}.cls-4{fill:#6caadd;}.cls-5{fill:#4e9ad4;}.cls-6{fill:#57c1e4;}.cls-7{fill:#377aaf;}.cls-8{fill:#0b589b;}.cls-9{fill:#e2ecf1;}</style></defs><path class="cls-1" d="M38.61,0H14.84a1.47,1.47,0,0,0-1.48,1.46V48.54A1.47,1.47,0,0,0,14.84,50H48.51A1.48,1.48,0,0,0,50,48.54V11.23Z" transform="translate(0 0)"/><path class="cls-2" d="M38.61,0H31.68V50H48.51A1.48,1.48,0,0,0,50,48.54V11.23Z" transform="translate(0 0)"/><path class="cls-3" d="M38.61,0V9.77a1.48,1.48,0,0,0,1.49,1.46H50A11.33,11.33,0,0,0,38.61,0Z" transform="translate(0 0)"/><path class="cls-4" d="M32.66,8.79H20.78a1.47,1.47,0,1,1,0-2.93H32.66a1.47,1.47,0,1,1,0,2.93Z" transform="translate(0 0)"/><path class="cls-5" d="M31.68,8.79h1a1.47,1.47,0,1,0,0-2.93h-1Z" transform="translate(0 0)"/><path class="cls-4" d="M30.19,18.75H22.36a1.47,1.47,0,1,1,0-2.93h7.83a1.47,1.47,0,1,1,0,2.93Z" transform="translate(0 0)"/><path class="cls-4" d="M30.19,24.61H22.36a1.47,1.47,0,1,1,0-2.93h7.83a1.47,1.47,0,1,1,0,2.93Z" transform="translate(0 0)"/><path class="cls-4" d="M30.19,30.47H22.36a1.47,1.47,0,1,1,0-2.93h7.83a1.47,1.47,0,1,1,0,2.93Z" transform="translate(0 0)"/><path class="cls-4" d="M30.19,36.33H22.36a1.47,1.47,0,1,1,0-2.93h7.83a1.47,1.47,0,1,1,0,2.93Z" transform="translate(0 0)"/><path class="cls-4" d="M42.56,42.19H22.36a1.47,1.47,0,1,1,0-2.93h20.2a1.47,1.47,0,1,1,0,2.93Z" transform="translate(0 0)"/><path class="cls-5" d="M42.57,39.26H31.68v2.93H42.57a1.47,1.47,0,1,0,0-2.93Z" transform="translate(0 0)"/><path class="cls-6" d="M41.2,23.21,40.59,23v-3.9a2.16,2.16,0,0,1,.72.39,1,1,0,0,0,1.39.1,1,1,0,0,0,.1-1.38,3.77,3.77,0,0,0-2.21-1.11v-.78a1,1,0,0,0-2,0v.86l-.39.1a3.66,3.66,0,0,0-2.52,2.84,3.19,3.19,0,0,0,1.07,3.16,8.91,8.91,0,0,0,1.84,1v4.93a3.44,3.44,0,0,1-1.8-.69,1,1,0,0,0-1.38.29,1,1,0,0,0,.29,1.35,5.4,5.4,0,0,0,2.89,1v.73a1,1,0,0,0,2,0v-.85a4.39,4.39,0,0,0,3.27-3.51A3.79,3.79,0,0,0,41.2,23.21ZM38,21.73a1.28,1.28,0,0,1-.34-1.26,1.71,1.71,0,0,1,1-1.26v2.92A5.11,5.11,0,0,1,38,21.73Zm3.92,5.52A2.41,2.41,0,0,1,40.59,29V25.07A1.87,1.87,0,0,1,41.91,27.25Z" transform="translate(0 0)"/><path class="cls-7" d="M22.28,50H4.46A4.43,4.43,0,0,1,0,45.61V17.29a4.43,4.43,0,0,1,4.46-4.4H22.28a4.43,4.43,0,0,1,4.46,4.4V45.61A4.43,4.43,0,0,1,22.28,50Z" transform="translate(0 0)"/><path class="cls-8" d="M22.27,12.89H13.36V50h8.91a4.43,4.43,0,0,0,4.46-4.39V17.29A4.43,4.43,0,0,0,22.27,12.89Z" transform="translate(0 0)"/><path class="cls-1" d="M19.31,27.54H7.43a1.48,1.48,0,0,1-1.49-1.47V20.21a1.48,1.48,0,0,1,1.49-1.46H19.31a1.48,1.48,0,0,1,1.49,1.46v5.86A1.48,1.48,0,0,1,19.31,27.54Z" transform="translate(0 0)"/><path class="cls-9" d="M19.3,18.75H13.36v8.79H19.3a1.48,1.48,0,0,0,1.49-1.47V20.21A1.48,1.48,0,0,0,19.3,18.75Z" transform="translate(0 0)"/><path class="cls-5" d="M7.43,38.28a1.47,1.47,0,1,0,0-2.93,1.47,1.47,0,1,0,0,2.93Z" transform="translate(0 0)"/><path class="cls-5" d="M13.37,38.28a1.47,1.47,0,1,0,0-2.93,1.47,1.47,0,1,0,0,2.93Z" transform="translate(0 0)"/><path class="cls-7" d="M13.36,35.35v2.93a1.47,1.47,0,1,0,0-2.93Z" transform="translate(0 0)"/><path class="cls-5" d="M7.43,32.91a1.47,1.47,0,1,0-1.49-1.46A1.47,1.47,0,0,0,7.43,32.91Z" transform="translate(0 0)"/><path class="cls-5" d="M13.37,32.91a1.47,1.47,0,1,0-1.49-1.46A1.47,1.47,0,0,0,13.37,32.91Z" transform="translate(0 0)"/><path class="cls-7" d="M13.36,30v2.93a1.47,1.47,0,1,0,0-2.93Z" transform="translate(0 0)"/><path class="cls-7" d="M19.31,32.91a1.47,1.47,0,1,0-1.48-1.46A1.48,1.48,0,0,0,19.31,32.91Z" transform="translate(0 0)"/><path class="cls-5" d="M7.43,44.14a1.47,1.47,0,1,0-1.49-1.46A1.47,1.47,0,0,0,7.43,44.14Z" transform="translate(0 0)"/><path class="cls-5" d="M13.37,44.14a1.47,1.47,0,1,0-1.49-1.46A1.47,1.47,0,0,0,13.37,44.14Z" transform="translate(0 0)"/><path class="cls-7" d="M13.36,41.21v2.93a1.47,1.47,0,1,0,0-2.93Z" transform="translate(0 0)"/><path class="cls-6" d="M19.31,44.14a1.47,1.47,0,0,1-1.48-1.46V36.82a1.49,1.49,0,0,1,3,0v5.86A1.48,1.48,0,0,1,19.31,44.14Z" transform="translate(0 0)"/></svg>