<svg width="55" height="55" viewBox="0 0 55 55" fill="none" xmlns="http://www.w3.org/2000/svg">
<path d="M41.9794 0.479248H16.6181C15.7427 0.479248 15.033 1.18894 15.033 2.06433V52.9983C15.033 53.8737 15.7427 54.5834 16.6181 54.5834H52.5466C53.422 54.5834 54.1317 53.8737 54.1317 52.9983V12.6316L41.9794 0.479248Z" fill="#FFF5F5"/>
<path d="M41.9824 0.479279H34.5853V54.5834H52.5496C53.425 54.5834 54.1347 53.8738 54.1347 52.9984V12.6316L41.9824 0.479279Z" fill="#E6EEFF"/>
<path d="M41.9824 0.479279V11.0465C41.9824 11.9219 42.6921 12.6316 43.5675 12.6316H54.1347C54.1347 5.9308 48.6832 0.479279 41.9824 0.479279Z" fill="#CBDDF3"/>
<path d="M35.6331 9.98978H22.9525C22.0771 9.98978 21.3674 9.28008 21.3674 8.40469C21.3674 7.52931 22.0771 6.81961 22.9525 6.81961H35.6331C36.5085 6.81961 37.2182 7.52931 37.2182 8.40469C37.2182 9.28008 36.5085 9.98978 35.6331 9.98978Z" fill="#6CABDE"/>
<path d="M34.5855 9.98981H35.6423C36.5177 9.98981 37.2273 9.28011 37.2273 8.40472C37.2273 7.52934 36.5177 6.81964 35.6423 6.81964H34.5855V9.98981Z" fill="#4D9AD6"/>
<path d="M32.9916 20.7684H24.6435C23.7681 20.7684 23.0584 20.0587 23.0584 19.1833C23.0584 18.3079 23.7681 17.5982 24.6435 17.5982H32.9916C33.867 17.5982 34.5767 18.3079 34.5767 19.1833C34.5767 20.0587 33.867 20.7684 32.9916 20.7684Z" fill="#6CABDE"/>
<path d="M32.9913 27.1087H24.6432C23.7678 27.1087 23.0581 26.399 23.0581 25.5237C23.0581 24.6483 23.7678 23.9386 24.6432 23.9386H32.9913C33.8667 23.9386 34.5764 24.6483 34.5764 25.5237C34.5764 26.399 33.8667 27.1087 32.9913 27.1087Z" fill="#6CABDE"/>
<path d="M32.9913 33.4491H24.6432C23.7678 33.4491 23.0581 32.7394 23.0581 31.864C23.0581 30.9886 23.7678 30.2789 24.6432 30.2789H32.9913C33.8667 30.2789 34.5764 30.9886 34.5764 31.864C34.5764 32.7394 33.8667 33.4491 32.9913 33.4491Z" fill="#6CABDE"/>
<path d="M32.9913 39.7894H24.6432C23.7678 39.7894 23.0581 39.0797 23.0581 38.2043C23.0581 37.3289 23.7678 36.6192 24.6432 36.6192H32.9913C33.8667 36.6192 34.5764 37.3289 34.5764 38.2043C34.5764 39.0797 33.8667 39.7894 32.9913 39.7894Z" fill="#6CABDE"/>
<path d="M46.2003 46.1297H24.6432C23.7678 46.1297 23.0581 45.42 23.0581 44.5446C23.0581 43.6692 23.7678 42.9595 24.6432 42.9595H46.2003C47.0757 42.9595 47.7854 43.6692 47.7854 44.5446C47.7854 45.42 47.0757 46.1297 46.2003 46.1297Z" fill="#6CABDE"/>
<path d="M46.2095 42.9595H34.5855V46.1297H46.2095C47.0849 46.1297 47.7946 45.42 47.7946 44.5446C47.7946 43.6692 47.0849 42.9595 46.2095 42.9595Z" fill="#4D9AD6"/>
<path d="M44.7486 25.5929C44.5327 25.5166 44.3127 25.4373 44.0925 25.3555V21.1402C44.5874 21.294 44.8404 21.5441 44.8591 21.5633C45.2431 21.9994 45.9078 22.0437 46.3461 21.6616C46.7862 21.2782 46.8322 20.6108 46.4488 20.1708C46.0584 19.7225 45.246 19.1601 44.0925 18.9715V18.1265C44.0925 17.543 43.6193 17.0698 43.0357 17.0698C42.4522 17.0698 41.979 17.543 41.979 18.1265V19.0606C41.8427 19.0922 41.7043 19.1283 41.563 19.1709C40.1857 19.5859 39.1567 20.7632 38.8778 22.2435C38.6227 23.5973 39.0592 24.905 40.0169 25.656C40.5146 26.0464 41.1326 26.4031 41.9789 26.7793V32.1163C41.2781 32.0586 40.8229 31.8801 40.055 31.3777C39.5663 31.058 38.9116 31.1952 38.5922 31.6835C38.2728 32.172 38.4096 32.8269 38.898 33.1464C40.1008 33.9331 40.9245 34.1724 41.9789 34.2351V35.0341C41.9789 35.6176 42.4521 36.0908 43.0356 36.0908C43.6192 36.0908 44.0924 35.6176 44.0924 35.0341V34.1147C46.0537 33.6309 47.3113 31.9616 47.5881 30.3156C47.9468 28.1833 46.8321 26.3295 44.7486 25.5929ZM41.3211 23.993C40.9917 23.7348 40.8478 23.2017 40.9546 22.6348C41.0487 22.1352 41.3672 21.5401 41.9789 21.2679V24.4224C41.7331 24.2843 41.51 24.1412 41.3211 23.993ZM45.5039 29.9653C45.3796 30.7052 44.9008 31.4873 44.0925 31.8814V27.6041C45.6699 28.1902 45.5726 29.5569 45.5039 29.9653Z" fill="#57C1E3"/>
<path d="M24.5575 54.5834H5.5365C2.91445 54.5834 0.78125 52.4502 0.78125 49.8282V19.1832C0.78125 16.5612 2.91445 14.428 5.5365 14.428H24.5575C27.1795 14.428 29.3127 16.5612 29.3127 19.1832V49.8282C29.3127 52.4502 27.1795 54.5834 24.5575 54.5834Z" fill="#3579AE"/>
<path d="M24.5499 14.428H15.0394V54.5834H24.5499C27.172 54.5834 29.3052 52.4502 29.3052 49.8282V19.1833C29.3052 16.5612 27.172 14.428 24.5499 14.428Z" fill="#03579A"/>
<path d="M21.3873 30.2788H8.70667C7.83128 30.2788 7.12158 29.5691 7.12158 28.6938V22.3534C7.12158 21.478 7.83128 20.7683 8.70667 20.7683H21.3873C22.2627 20.7683 22.9724 21.478 22.9724 22.3534V28.6938C22.9724 29.5691 22.2627 30.2788 21.3873 30.2788Z" fill="#FFF5F5"/>
<path d="M21.3782 20.7683H15.0378V30.2788H21.3782C22.2536 30.2788 22.9632 29.5691 22.9632 28.6938V22.3534C22.9632 21.478 22.2536 20.7683 21.3782 20.7683Z" fill="#E1EBF0"/>
<path d="M8.70667 41.9028C9.58208 41.9028 10.2917 41.1931 10.2917 40.3177C10.2917 39.4423 9.58208 38.7326 8.70667 38.7326C7.83125 38.7326 7.12158 39.4423 7.12158 40.3177C7.12158 41.1931 7.83125 41.9028 8.70667 41.9028Z" fill="#4D9AD6"/>
<path d="M15.047 41.9028C15.9224 41.9028 16.6321 41.1931 16.6321 40.3177C16.6321 39.4423 15.9224 38.7326 15.047 38.7326C14.1716 38.7326 13.4619 39.4423 13.4619 40.3177C13.4619 41.1931 14.1716 41.9028 15.047 41.9028Z" fill="#4D9AD6"/>
<path d="M15.0378 38.7326V41.9028C15.9132 41.9028 16.6229 41.1931 16.6229 40.3177C16.6229 39.4423 15.9132 38.7326 15.0378 38.7326Z" fill="#3579AE"/>
<path d="M8.70667 36.0908C9.58208 36.0908 10.2917 35.3812 10.2917 34.5057C10.2917 33.6303 9.58208 32.9207 8.70667 32.9207C7.83125 32.9207 7.12158 33.6303 7.12158 34.5057C7.12158 35.3812 7.83125 36.0908 8.70667 36.0908Z" fill="#4D9AD6"/>
<path d="M15.047 36.0908C15.9224 36.0908 16.6321 35.3812 16.6321 34.5057C16.6321 33.6303 15.9224 32.9207 15.047 32.9207C14.1716 32.9207 13.4619 33.6303 13.4619 34.5057C13.4619 35.3812 14.1716 36.0908 15.047 36.0908Z" fill="#4D9AD6"/>
<path d="M15.0378 32.9207V36.0908C15.9132 36.0908 16.6229 35.3811 16.6229 34.5057C16.6229 33.6303 15.9132 32.9207 15.0378 32.9207Z" fill="#3579AE"/>
<path d="M21.3873 36.0908C22.2627 36.0908 22.9724 35.3812 22.9724 34.5057C22.9724 33.6303 22.2627 32.9207 21.3873 32.9207C20.5119 32.9207 19.8022 33.6303 19.8022 34.5057C19.8022 35.3812 20.5119 36.0908 21.3873 36.0908Z" fill="#3579AE"/>
<path d="M8.70667 48.2431C9.58208 48.2431 10.2917 47.5335 10.2917 46.658C10.2917 45.7826 9.58208 45.073 8.70667 45.073C7.83125 45.073 7.12158 45.7826 7.12158 46.658C7.12158 47.5335 7.83125 48.2431 8.70667 48.2431Z" fill="#4D9AD6"/>
<path d="M15.047 48.2431C15.9224 48.2431 16.6321 47.5335 16.6321 46.658C16.6321 45.7826 15.9224 45.073 15.047 45.073C14.1716 45.073 13.4619 45.7826 13.4619 46.658C13.4619 47.5335 14.1716 48.2431 15.047 48.2431Z" fill="#4D9AD6"/>
<path d="M15.0378 45.073V48.2431C15.9132 48.2431 16.6229 47.5334 16.6229 46.658C16.6229 45.7826 15.9132 45.073 15.0378 45.073Z" fill="#3579AE"/>
<path d="M21.3873 48.2431C20.5119 48.2431 19.8022 47.5334 19.8022 46.658V40.3177C19.8022 39.4423 20.5119 38.7326 21.3873 38.7326C22.2627 38.7326 22.9724 39.4423 22.9724 40.3177V46.658C22.9724 47.5334 22.2627 48.2431 21.3873 48.2431Z" fill="#57C1E3"/>
</svg>
