<svg id="Capa_1" data-name="Capa 1" xmlns="http://www.w3.org/2000/svg" xmlns:xlink="http://www.w3.org/1999/xlink" viewBox="0 0 50 41.83"><defs><style>.cls-1{fill:none;}.cls-2{clip-path:url(#clip-path);}.cls-3{fill:#0b589b;}.cls-4{fill:#0d4271;}.cls-5{fill:#a9cfed;}.cls-6{fill:#9bbcd8;}.cls-7{fill:#f3f5f9;}.cls-8{fill:#e3e3e2;}.cls-9{fill:#d8dbf0;}</style><clipPath id="clip-path" transform="translate(0 -3.62)"><rect class="cls-1" y="3.62" width="50" height="41.86"/></clipPath></defs><g class="cls-2"><path class="cls-3" d="M50,11.17V44a1.46,1.46,0,0,1-1.46,1.49H1.46A1.46,1.46,0,0,1,0,44V11.17A1.46,1.46,0,0,1,1.46,9.68H48.54A1.46,1.46,0,0,1,50,11.17Z" transform="translate(0 -3.62)"/><path class="cls-4" d="M50,11.17V44a1.46,1.46,0,0,1-1.46,1.49H25V9.68H48.54A1.46,1.46,0,0,1,50,11.17Z" transform="translate(0 -3.62)"/><path class="cls-5" d="M2.93,12.66H47.07V42.47H2.93Z" transform="translate(0 -3.62)"/><path class="cls-6" d="M25,12.66H47.07V42.47H25Z" transform="translate(0 -3.62)"/><path class="cls-7" d="M44.14,15.64V38a1.46,1.46,0,0,1-1.46,1.49H7.32A1.46,1.46,0,0,1,5.86,38V15.64l2.93-3H41.21Z" transform="translate(0 -3.62)"/><path class="cls-8" d="M44.14,15.64V38a1.46,1.46,0,0,1-1.46,1.49H25V12.66H41.21Z" transform="translate(0 -3.62)"/><path class="cls-6" d="M22.07,24.59H13.28a1.49,1.49,0,0,1,0-3h8.79a1.49,1.49,0,0,1,0,3Z" transform="translate(0 -3.62)"/><path class="cls-6" d="M22.07,30.55H13.28a1.49,1.49,0,0,1,0-3h8.79a1.49,1.49,0,0,1,0,3Z" transform="translate(0 -3.62)"/><path class="cls-3" d="M35.69,33.09l-2.93-3a1.5,1.5,0,0,1,0-2.11,1.45,1.45,0,0,1,2.07,0l2.93,3a1.5,1.5,0,0,1,0,2.1A1.43,1.43,0,0,1,35.69,33.09Z" transform="translate(0 -3.62)"/><path class="cls-3" d="M30.52,33.49a1.48,1.48,0,0,1-1.05-1l-2.93-8.94A1.51,1.51,0,0,1,26.9,22a1.46,1.46,0,0,1,1.5-.36l8.78,3a1.5,1.5,0,0,1,1,1.07,1.52,1.52,0,0,1-.39,1.4l-5.86,6A1.46,1.46,0,0,1,30.52,33.49Z" transform="translate(0 -3.62)"/><path class="cls-3" d="M44.14,5.11V15.64H5.86V5.11A1.46,1.46,0,0,1,7.32,3.62H42.68A1.46,1.46,0,0,1,44.14,5.11Z" transform="translate(0 -3.62)"/><path class="cls-4" d="M44.14,5.11V15.64H25v-12H42.68A1.46,1.46,0,0,1,44.14,5.11Z" transform="translate(0 -3.62)"/><path class="cls-7" d="M13.28,11.17a1.49,1.49,0,1,0-1.46-1.49A1.48,1.48,0,0,0,13.28,11.17Z" transform="translate(0 -3.62)"/><path class="cls-7" d="M19.14,11.17a1.49,1.49,0,1,0-1.46-1.49A1.48,1.48,0,0,0,19.14,11.17Z" transform="translate(0 -3.62)"/><path class="cls-7" d="M25,11.17a1.49,1.49,0,1,0-1.46-1.49A1.48,1.48,0,0,0,25,11.17Z" transform="translate(0 -3.62)"/><path class="cls-9" d="M26.46,9.68A1.46,1.46,0,0,1,25,11.17v-3A1.46,1.46,0,0,1,26.46,9.68Z" transform="translate(0 -3.62)"/></g></svg>