<svg width="65" height="55" viewBox="0 0 65 55" fill="none" xmlns="http://www.w3.org/2000/svg">
<path d="M64.444 10.5853V52.2237C64.444 53.2834 63.6257 54.1163 62.584 54.1163H2.81448C1.77273 54.1163 0.954433 53.2834 0.954433 52.2237V10.5853C0.954433 9.52524 1.77273 8.6926 2.81448 8.6926H62.584C63.6257 8.6926 64.444 9.52524 64.444 10.5853Z" fill="#03579A"/>
<path d="M64.444 10.5853V52.2237C64.444 53.2834 63.6257 54.1163 62.584 54.1163H32.6992V8.6926H62.584C63.6257 8.6926 64.444 9.52524 64.444 10.5853Z" fill="#024173"/>
<path d="M4.67453 12.4781H60.7239V50.3312H4.67453V12.4781Z" fill="#A9CFED"/>
<path d="M32.6992 12.4781H60.7239V50.3312H32.6992V12.4781Z" fill="#9ABCD7"/>
<path d="M57.0038 16.2634V44.6532C57.0038 45.713 56.1855 46.5459 55.1438 46.5459H10.2547C9.21292 46.5459 8.39462 45.713 8.39462 44.6532V16.2634L12.1147 12.4781H53.2837L57.0038 16.2634Z" fill="#F3F5F9"/>
<path d="M57.0038 16.2634V44.6532C57.0038 45.713 56.1855 46.5459 55.1438 46.5459H32.6992V12.4781H53.2837L57.0038 16.2634Z" fill="#E3E3E3"/>
<path d="M28.982 27.6193H17.8217C16.7936 27.6193 15.9617 26.7727 15.9617 25.7266C15.9617 24.6805 16.7936 23.834 17.8217 23.834H28.982C30.0101 23.834 30.8421 24.6805 30.8421 25.7266C30.8421 26.7727 30.0101 27.6193 28.982 27.6193Z" fill="#9ABCD7"/>
<path d="M28.982 35.1899H17.8217C16.7936 35.1899 15.9617 34.3434 15.9617 33.2973C15.9617 32.2512 16.7936 31.4046 17.8217 31.4046H28.982C30.0101 31.4046 30.8421 32.2512 30.8421 33.2973C30.8421 34.3434 30.0101 35.1899 28.982 35.1899Z" fill="#9ABCD7"/>
<path d="M46.2673 38.4207L42.5472 34.6354C41.8207 33.8962 41.8207 32.6984 42.5472 31.9591C43.2738 31.2198 44.4509 31.2198 45.1775 31.9591L48.8976 35.7444C49.6241 36.4837 49.6241 37.6815 48.8976 38.4207C48.1709 39.1601 46.9939 39.1601 46.2673 38.4207Z" fill="#03579A"/>
<path d="M39.7138 38.925C39.0889 38.7735 38.5803 38.304 38.3769 37.6812L34.6568 26.3252C34.4352 25.645 34.6096 24.8946 35.1073 24.3882C35.6087 23.8855 36.3461 23.7024 37.011 23.9316L48.1713 27.717C48.7816 27.924 49.2467 28.4378 49.392 29.0773C49.5409 29.715 49.3557 30.3859 48.898 30.8498L41.4578 38.4204C41.009 38.8769 40.356 39.0759 39.7138 38.925Z" fill="#03579A"/>
<path d="M57.0038 2.8884V16.2632H8.39462V2.8884C8.39462 1.82838 9.21292 0.995743 10.2547 0.995743H55.1438C56.1855 0.995743 57.0038 1.82838 57.0038 2.8884Z" fill="#03579A"/>
<path d="M57.0038 2.8884V16.2632H32.6992V0.995743H55.1438C56.1855 0.995743 57.0038 1.82838 57.0038 2.8884Z" fill="#024173"/>
<path d="M17.8217 10.5854C18.849 10.5854 19.6818 9.73805 19.6818 8.69277C19.6818 7.64748 18.849 6.80011 17.8217 6.80011C16.7945 6.80011 15.9617 7.64748 15.9617 8.69277C15.9617 9.73805 16.7945 10.5854 17.8217 10.5854Z" fill="#F3F5F9"/>
<path d="M25.2619 10.5854C26.2892 10.5854 27.122 9.73805 27.122 8.69277C27.122 7.64748 26.2892 6.80011 25.2619 6.80011C24.2347 6.80011 23.4019 7.64748 23.4019 8.69277C23.4019 9.73805 24.2347 10.5854 25.2619 10.5854Z" fill="#F3F5F9"/>
<path d="M32.7021 10.5854C33.7294 10.5854 34.5622 9.73805 34.5622 8.69277C34.5622 7.64748 33.7294 6.80011 32.7021 6.80011C31.6748 6.80011 30.8421 7.64748 30.8421 8.69277C30.8421 9.73805 31.6748 10.5854 32.7021 10.5854Z" fill="#F3F5F9"/>
<path d="M34.5593 8.69274C34.5593 9.7525 33.741 10.5854 32.6992 10.5854V6.80008C33.741 6.80008 34.5593 7.63272 34.5593 8.69274Z" fill="#D8DBF0"/>
</svg>
