<svg width="208" height="40" viewBox="0 0 208 40" fill="none" xmlns="http://www.w3.org/2000/svg">
<path d="M78.2835 15.9381H73.1862V24.6809C73.1862 26.5378 74.1752 27.2341 75.849 27.2341C76.3815 27.2341 76.9141 27.1567 77.2945 27.002L76.9902 29.6325C76.5337 29.8646 75.849 29.942 75.2403 29.942C72.3493 29.942 69.9909 28.2399 69.9909 25.0677V15.9381H66.7956V13.3076H69.9909V9.98069L73.1862 8.27856V13.3076H78.8921L78.2835 15.9381Z" fill="#01579A"/>
<path d="M89.8475 16.7118C89.5432 16.6344 89.1628 16.5571 88.7063 16.5571C86.5761 16.5571 84.3698 17.5629 84.3698 21.354V29.6325H81.1745V13.3075H84.3698V16.6344C84.9784 14.3134 86.8043 13.0754 89.0106 13.0754C89.4671 13.0754 90.2279 13.1528 90.6083 13.3075L89.8475 16.7118Z" fill="#01579A"/>
<path d="M104.074 29.6325V27.4662C103.39 28.9362 101.944 30.0194 99.1292 30.0194C95.6296 30.0194 93.0429 27.7757 93.0429 24.0619V13.2302H96.2382V23.7525C96.2382 25.4546 97.3033 27.1567 99.9661 27.1567C102.553 27.1567 103.846 25.4546 103.846 23.7525V13.3076H107.118V29.7099H104.074V29.6325Z" fill="#01579A"/>
<path d="M115.181 29.8646C113.355 29.8646 111.833 29.4004 110.692 28.7041L110.311 25.2998C111.453 26.3056 113.355 27.1567 115.257 27.1567C116.778 27.1567 117.767 26.3056 117.767 25.2998C117.767 24.2167 117.006 23.5977 115.561 23.0561C112.442 21.8956 110.692 20.4256 110.692 17.795C110.692 15.0871 112.822 13.1528 116.017 13.1528C117.843 13.1528 119.593 13.7718 120.202 14.236L119.593 16.9439C118.832 16.4023 117.767 15.8608 116.017 15.8608C114.724 15.8608 113.887 16.5571 113.887 17.6403C113.887 18.6461 114.572 19.1103 116.17 19.7292C119.365 20.8898 121.115 22.3598 121.115 25.2225C120.963 27.6983 119.061 29.8646 115.181 29.8646Z" fill="#01579A"/>
<path d="M134.049 15.9381H128.952V24.6809C128.952 26.5378 129.941 27.2341 131.615 27.2341C132.147 27.2341 132.68 27.1567 133.06 27.002L132.756 29.6325C132.3 29.8646 131.615 29.942 131.006 29.942C128.115 29.942 125.757 28.2399 125.757 25.0677V15.9381H122.562V13.3076H125.757V9.98069L128.952 8.27856V13.3076H134.658L134.049 15.9381Z" fill="#01579A"/>
<path d="M155.582 7.19538C154.821 6.8859 153.984 6.65379 153.223 6.65379C150.713 6.65379 149.419 8.20118 149.419 11.1412V13.2302H154.669L154.06 15.8608H149.495V29.5551H146.3V15.9381H143.561V13.3076H146.3V11.0639C146.3 6.42168 148.887 3.94586 153.071 3.94586C154.288 3.94586 155.429 4.1006 156.266 4.48745L155.582 7.19538Z" fill="#01579A"/>
<path d="M168.131 29.6324V27.4661C167.447 28.9361 166.001 30.0193 163.186 30.0193C159.687 30.0193 157.1 27.7756 157.1 24.0618V13.2301H160.295V23.7523C160.295 25.4545 161.36 27.1566 164.023 27.1566C166.61 27.1566 167.903 25.4545 167.903 23.7523V13.3075H171.098V29.7098H168.131V29.6324Z" fill="#01579A"/>
<path d="M185.859 29.6325V19.1876C185.859 17.4855 184.794 15.7834 182.131 15.7834C179.545 15.7834 178.251 17.4855 178.251 19.1876V29.7099H174.98V13.3076H177.947V15.4739C178.632 14.0039 180.077 12.9207 182.892 12.9207C186.392 12.9207 188.978 15.1644 188.978 18.8782V29.7099H185.859V29.6325Z" fill="#01579A"/>
<path d="M204.954 29.6325V27.853C204.269 28.9362 202.747 30.0194 200.085 30.0194C196.509 30.0194 192.325 27.1567 192.325 21.4314C192.325 16.4023 195.824 12.8433 200.465 12.8433C202.215 12.8433 204.193 13.5397 204.802 14.236V3.94586H207.997V29.6325H204.954ZM204.802 17.4855C204.269 16.9439 202.976 15.8608 200.769 15.8608C197.878 15.8608 195.52 18.1045 195.52 21.5087C195.52 24.913 197.878 27.2341 200.769 27.2341C202.823 27.2341 204.117 26.1509 204.802 25.1451V17.4855Z" fill="#01579A"/>
<path d="M44.1258 8.66538H1.8259C0.989032 8.66538 0.304321 7.96905 0.304321 7.11799V1.54739C0.304321 0.696325 0.989032 0 1.8259 0H44.1258C44.9627 0 45.6474 0.696325 45.6474 1.54739V7.04062C45.7235 7.96905 45.0388 8.66538 44.1258 8.66538Z" fill="url(#paint0_linear_30_122)"/>
<path d="M45.7235 24.6035V37.911C45.7235 38.53 45.4952 38.9942 45.1148 39.3811L45.0388 39.4584C45.0388 39.4584 44.9627 39.5358 44.8866 39.5358C44.5062 39.8453 43.9737 40 43.4411 40C43.365 40 43.289 40 43.2129 40C42.9846 40 42.7564 39.9226 42.6042 39.8453L42.2238 39.6905H42.1478L22.8998 30.5609L3.49963 39.6905C3.19532 39.9226 2.81492 40 2.35845 40H2.13021C0.912948 40 0 39.0716 0 37.911V24.6035L22.8998 12.9207L45.7235 24.6035Z" fill="#01579A"/>
<path d="M45.7218 24.6035V37.911C45.7218 38.53 45.4936 38.9942 45.1132 39.381L45.0371 39.4584C45.0371 39.4584 44.961 39.5358 44.885 39.5358C44.5046 39.8452 43.972 40 43.4395 40C43.3634 40 43.2873 40 43.2112 40C42.983 40 42.7548 39.9226 42.6026 39.8452L42.2222 39.6905H42.1461L22.8981 30.5609V12.998L45.7218 24.6035Z" fill="url(#paint1_linear_30_122)"/>
<defs>
<linearGradient id="paint0_linear_30_122" x1="44.2433" y1="4.70588" x2="0.000195738" y2="4.70588" gradientUnits="userSpaceOnUse">
<stop stop-color="#247DB5"/>
<stop offset="1" stop-color="#256FAD"/>
</linearGradient>
<linearGradient id="paint1_linear_30_122" x1="34.284" y1="40.0114" x2="34.284" y2="12.9705" gradientUnits="userSpaceOnUse">
<stop stop-color="#2380B6"/>
<stop offset="1" stop-color="#256DAC"/>
</linearGradient>
</defs>
</svg>
