<svg width="40" height="47" viewBox="0 0 40 47" fill="none" xmlns="http://www.w3.org/2000/svg">
<g clip-path="url(#clip0_30_103)">
<path d="M33.3304 41.4791H1.37316C0.624164 41.4791 0 40.8492 0 40.0526V6.6876C0 5.90951 0.606331 5.26111 1.37316 5.26111H33.3304C34.0794 5.26111 34.7035 5.89099 34.7035 6.6876V40.0711C34.6857 40.8492 34.0794 41.4791 33.3304 41.4791Z" fill="#03579A"/>
<path d="M34.6874 6.68763V40.0712C34.6874 40.8492 34.0811 41.4976 33.3143 41.4976H17.3535V5.26114H33.3321C34.0811 5.26114 34.6874 5.90954 34.6874 6.68763Z" fill="#024173"/>
<path d="M38.6441 47.0153H6.68686C5.93786 47.0153 5.3137 46.3854 5.3137 45.5888V12.2238C5.3137 11.4457 5.92003 10.7973 6.68686 10.7973H38.6441C39.3931 10.7973 40.0172 11.4272 40.0172 12.2238V45.6073C39.9994 46.3854 39.3931 47.0153 38.6441 47.0153Z" fill="#D5EBFC"/>
<path d="M39.9982 12.2088V45.5923C39.9982 46.3704 39.3919 47.0188 38.6251 47.0188H22.6465V10.7823H38.6251C39.3919 10.7823 39.9982 11.4307 39.9982 12.2088Z" fill="#9ABCD7" fill-opacity="0.15"/>
<path d="M14.108 9.81868V9.87426C14.108 9.85573 14.108 9.83721 14.108 9.81868ZM22.6679 5.46512C22.6144 2.44541 20.2426 0 17.3358 0C14.5003 0 12.1642 2.33425 12.0215 5.27986H14.5003C14.643 3.72369 15.8735 2.50099 17.3536 2.50099C18.8338 2.50099 20.0643 3.72369 20.2069 5.27986C20.2248 5.37249 20.2248 5.48364 20.2248 5.57627V14.0796C20.2069 15.2653 19.5114 16.2471 18.709 16.2471C17.9065 16.2471 17.2288 15.2653 17.1931 14.0796V10.782H14.6965V14.0055C14.6965 14.024 14.6965 14.0426 14.6965 14.0611C14.7143 16.6547 16.4976 18.7296 18.6733 18.7296C20.8489 18.7296 22.6323 16.6362 22.6501 14.0611C22.6501 14.0426 22.6501 14.024 22.6501 14.0055V5.57627C22.6679 5.53922 22.6679 5.50217 22.6679 5.46512Z" fill="#022C4D"/>
<path d="M30.7091 26.5999H14.6235C13.9458 26.5999 13.393 26.0256 13.393 25.3216C13.393 24.6176 13.9458 24.0433 14.6235 24.0433H30.7091C31.3867 24.0433 31.9395 24.6176 31.9395 25.3216C31.9395 26.0256 31.3867 26.5999 30.7091 26.5999Z" fill="#9ABCD7" fill-opacity="0.3"/>
<path d="M30.7088 32.1053H14.6232C13.9456 32.1053 13.3927 31.531 13.3927 30.827C13.3927 30.123 13.9456 29.5487 14.6232 29.5487H30.7088C31.3865 29.5487 31.9393 30.123 31.9393 30.827C31.9393 31.5495 31.3865 32.1053 30.7088 32.1053Z" fill="#9ABCD7" fill-opacity="0.3"/>
<path d="M30.7088 37.626H14.6232C13.9456 37.626 13.3927 37.0517 13.3927 36.3477C13.3927 35.6437 13.9456 35.0694 14.6232 35.0694H30.7088C31.3865 35.0694 31.9393 35.6437 31.9393 36.3477C31.9393 37.0702 31.3865 37.626 30.7088 37.626Z" fill="#9ABCD7" fill-opacity="0.3"/>
<path d="M31.9376 36.3661C31.9376 36.7181 31.7949 37.0331 31.5809 37.2739C31.3669 37.4962 31.0459 37.6444 30.7071 37.6444H22.6465V35.1064H30.7071C31.3848 35.0878 31.9376 35.6621 31.9376 36.3661Z" fill="#F3F5F9"/>
<path d="M31.9376 30.8455C31.9376 31.1975 31.7949 31.5125 31.5809 31.7533C31.3669 31.9756 31.0459 32.1238 30.7071 32.1238H22.6465V29.5858H30.7071C31.3848 29.5673 31.9376 30.1416 31.9376 30.8455Z" fill="#F3F5F9"/>
<path d="M31.9376 25.325C31.9376 25.677 31.7949 25.992 31.5809 26.2328C31.3669 26.4551 31.0459 26.6033 30.7071 26.6033H22.6465V24.0653H30.7071C31.3848 24.0467 31.9376 24.621 31.9376 25.325Z" fill="#F3F5F9"/>
<path d="M31.9376 25.3403C31.9376 25.6923 31.7949 26.0073 31.5809 26.2481C31.3669 26.4704 31.0459 26.6186 30.7071 26.6186H22.6465V24.0806H30.7071C31.3848 24.062 31.9376 24.6364 31.9376 25.3403Z" fill="#C7D9E8"/>
<path d="M31.9376 30.8609C31.9376 31.2129 31.7949 31.5278 31.5809 31.7687C31.3669 31.991 31.0459 32.1392 30.7071 32.1392H22.6465V29.6011H30.7071C31.3848 29.5826 31.9376 30.1569 31.9376 30.8609Z" fill="#C7D9E8"/>
<path d="M31.9376 36.382C31.9376 36.734 31.7949 37.049 31.5809 37.2898C31.3669 37.5121 31.0459 37.6603 30.7071 37.6603H22.6465V35.1223H30.7071C31.3848 35.1037 31.9376 35.678 31.9376 36.382Z" fill="#C7D9E8"/>
</g>
<defs>
<clipPath id="clip0_30_103">
<rect width="40" height="47" fill="white"/>
</clipPath>
</defs>
</svg>
