<svg id="Capa_1" data-name="Capa 1" xmlns="http://www.w3.org/2000/svg" xmlns:xlink="http://www.w3.org/1999/xlink" viewBox="0 0 43.68 50.02"><defs><style>.cls-1{fill:none;}.cls-2{clip-path:url(#clip-path);}.cls-3{fill:#0b589b;}.cls-4{fill:#0d4271;}.cls-5{fill:#d6ecfb;}.cls-6,.cls-8{fill:#9bbcd8;}.cls-6{fill-opacity:0.15;}.cls-7{fill:#162e4b;}.cls-8{fill-opacity:0.3;}.cls-9{fill:#f3f5f9;}.cls-10{fill:#c7d9e9;}</style><clipPath id="clip-path" transform="translate(-3.72)"><rect class="cls-1" x="3.72" width="43.66" height="50"/></clipPath></defs><g class="cls-2"><path class="cls-3" d="M40.1,44.13H5.22a1.51,1.51,0,0,1-1.5-1.52V7.11A1.51,1.51,0,0,1,5.22,5.6H40.1a1.51,1.51,0,0,1,1.5,1.51V42.63A1.52,1.52,0,0,1,40.1,44.13Z" transform="translate(-3.72)"/><path class="cls-4" d="M41.58,7.11V42.63a1.51,1.51,0,0,1-1.5,1.52H22.66V5.6H40.1A1.5,1.5,0,0,1,41.58,7.11Z" transform="translate(-3.72)"/><path class="cls-5" d="M45.9,50H11a1.51,1.51,0,0,1-1.5-1.52V13A1.51,1.51,0,0,1,11,11.49H45.9A1.51,1.51,0,0,1,47.4,13V48.52A1.52,1.52,0,0,1,45.9,50Z" transform="translate(-3.72)"/><path class="cls-6" d="M47.38,13V48.5A1.51,1.51,0,0,1,45.88,50H28.44V11.47H45.88A1.51,1.51,0,0,1,47.38,13Z" transform="translate(-3.72)"/><path class="cls-7" d="M19.12,10.45v0Zm9.34-4.64a5.81,5.81,0,0,0-11.62-.19h2.71a3.12,3.12,0,0,1,6.23,0,1.62,1.62,0,0,1,0,.31V15c0,1.26-.78,2.3-1.66,2.3s-1.61-1-1.65-2.3V11.47H19.76V15c0,2.76,2,5,4.34,5s4.32-2.23,4.34-5v-9A.25.25,0,0,0,28.46,5.81Z" transform="translate(-3.72)"/><path class="cls-8" d="M37.24,28.3H19.68a1.36,1.36,0,0,1,0-2.72H37.24a1.36,1.36,0,0,1,0,2.72Z" transform="translate(-3.72)"/><path class="cls-8" d="M37.24,34.15H19.68a1.36,1.36,0,0,1,0-2.72H37.24a1.36,1.36,0,0,1,1.34,1.36A1.34,1.34,0,0,1,37.24,34.15Z" transform="translate(-3.72)"/><path class="cls-8" d="M37.24,40H19.68a1.36,1.36,0,0,1,0-2.72H37.24a1.36,1.36,0,0,1,0,2.72Z" transform="translate(-3.72)"/><path class="cls-9" d="M38.58,38.69a1.39,1.39,0,0,1-.39,1,1.34,1.34,0,0,1-.95.4h-8.8v-2.7h8.8A1.32,1.32,0,0,1,38.58,38.69Z" transform="translate(-3.72)"/><path class="cls-9" d="M38.58,32.81a1.41,1.41,0,0,1-.39,1,1.33,1.33,0,0,1-.95.39h-8.8v-2.7h8.8A1.33,1.33,0,0,1,38.58,32.81Z" transform="translate(-3.72)"/><path class="cls-9" d="M38.58,26.94a1.41,1.41,0,0,1-.39,1,1.37,1.37,0,0,1-.95.39h-8.8V25.6h8.8A1.32,1.32,0,0,1,38.58,26.94Z" transform="translate(-3.72)"/><path class="cls-10" d="M38.58,27a1.39,1.39,0,0,1-.39,1,1.34,1.34,0,0,1-.95.4h-8.8v-2.7h8.8A1.32,1.32,0,0,1,38.58,27Z" transform="translate(-3.72)"/><path class="cls-10" d="M38.58,32.83a1.41,1.41,0,0,1-.39,1,1.37,1.37,0,0,1-.95.39h-8.8v-2.7h8.8A1.32,1.32,0,0,1,38.58,32.83Z" transform="translate(-3.72)"/><path class="cls-10" d="M38.58,38.7a1.41,1.41,0,0,1-.39,1,1.33,1.33,0,0,1-.95.39h-8.8v-2.7h8.8A1.33,1.33,0,0,1,38.58,38.7Z" transform="translate(-3.72)"/></g></svg>